# xmcd
#
# Track frame offsets:
#	150
#	25775
#	46695
#	66573
#	85520
#	104948
#	128405
#	151423
#	173638
#	193970
#
# Disc length: 2872 seconds
#
# Revision: 1
# Processed by: cddbd v1.5.2PL0 Copyright (c) Steve Scherf et al.
# Submitted via: EZCDAudioConverter 8.0.2.1
#
DISCID=7f0b360a
DTITLE=Various Artist - st. Mai Anh Việt. Vầng Tóc Rối
DYEAR=1991
DGENRE=Indie - Alternative
TTITLE0=Thiên Phượng - Nụ cười nào đó
TTITLE1=Tuấn Ngọc - Anh xin làm...
TTITLE2=Thái Thảo - Gió
TTITLE3=Thái Hiền - Nhớ phút ấy
TTITLE4=Mai Anh Việt - Tình yêu cho tôi
TTITLE5=Thiên Phượng - Tình yêu có khi
TTITLE6=Tuấn Ngọc - Vầng tóc rối
TTITLE7=Thái Hiền - Tàn dư một đời
TTITLE8=Thái Thảo - Còn Thuở nào
TTITLE9=Mai Anh Việt - Khi tôi yêu em
EXTD=
EXTT0=
EXTT1=
EXTT2=
EXTT3=
EXTT4=
EXTT5=
EXTT6=
EXTT7=
EXTT8=
EXTT9=
PLAYORDER=
